HIERARCHY
ROOT Hips
{
	OFFSET 0.000000 0.000000 0.000000
	CHANNELS 6 Xposition Yposition Zposition Zrotation Yrotation Xrotation 
	JOINT LeftUpLeg_virtual
	{
		OFFSET 0.000000 0.000000 0.000000
		CHANNELS 3 Zrotation Yrotation Xrotation
		JOINT LeftUpLeg
		{
			OFFSET 8.479694 -4.795517 -0.379053
			CHANNELS 3 Zrotation Yrotation Xrotation
			JOINT LeftLeg
			{
				OFFSET 0.485052 -32.551468 0.112863
				CHANNELS 3 Zrotation Yrotation Xrotation
				JOINT LeftFoot
				{
					OFFSET 0.438033 -32.635670 -3.012641
					CHANNELS 3 Zrotation Yrotation Xrotation
					JOINT LeftToeBase
					{
						OFFSET 0.970169 -13.225353 11.864223
						CHANNELS 3 Zrotation Yrotation Xrotation
						End Site
						{
							OFFSET 0.000000 0.000000 0.000000
						}
					}
				}
			}
		}
	}
	JOINT RightUpLeg_virtual
	{
		OFFSET 0.000000 0.000000 0.000000
		CHANNELS 3 Zrotation Yrotation Xrotation
		JOINT RightUpLeg
		{
			OFFSET -8.479694 -4.795517 -0.379053
			CHANNELS 3 Zrotation Yrotation Xrotation
			JOINT RightLeg
			{
				OFFSET -0.484100 -32.551483 0.112903
				CHANNELS 3 Zrotation Yrotation Xrotation
				JOINT RightFoot
				{
					OFFSET -0.438985 -32.635651 -3.012681
					CHANNELS 3 Zrotation Yrotation Xrotation
					JOINT RightToeBase
					{
						OFFSET -0.970169 -13.225354 11.864223
						CHANNELS 3 Zrotation Yrotation Xrotation
						End Site
						{
							OFFSET 0.000000 0.000000 0.000000
						}
					}
				}
			}
		}
	}
	JOINT Spine_virtual
	{
		OFFSET 0.000000 0.000000 0.000000
		CHANNELS 3 Zrotation Yrotation Xrotation
		JOINT Spine
		{
			OFFSET 0.000000 7.722015 1.166203
			CHANNELS 3 Zrotation Yrotation Xrotation
			JOINT Spine1
			{
				OFFSET 0.000000 12.024086 0.248766
				CHANNELS 3 Zrotation Yrotation Xrotation
				JOINT Spine2
				{
					OFFSET -0.000000 11.503036 -0.491240
					CHANNELS 3 Zrotation Yrotation Xrotation
					JOINT Neck_virtual
					{
						OFFSET 0.000000 0.000000 0.000000
						CHANNELS 3 Zrotation Yrotation Xrotation
						JOINT Neck
						{
							OFFSET 0.000000 18.430687 -3.123054
							CHANNELS 3 Zrotation Yrotation Xrotation
							JOINT Head
							{
								OFFSET -0.000000 9.051071 1.034021
								CHANNELS 3 Zrotation Yrotation Xrotation
								End Site
								{
									OFFSET 0.000000 0.000000 0.000000
								}
							}
						}
					}
					JOINT LeftShoulder_virtual
					{
						OFFSET 0.000000 0.000000 0.000000
						CHANNELS 3 Zrotation Yrotation Xrotation
						JOINT LeftShoulder
						{
							OFFSET 6.197824 13.665230 -4.064723
							CHANNELS 3 Zrotation Yrotation Xrotation
							JOINT LeftArm
							{
								OFFSET 7.778132 -0.187073 -1.709282
								CHANNELS 3 Zrotation Yrotation Xrotation
								JOINT LeftForeArm
								{
									OFFSET 21.954697 0.000000 -2.041093
									CHANNELS 3 Zrotation Yrotation Xrotation
									JOINT LeftHand
									{
										OFFSET 22.992908 0.000000 -0.870901
										CHANNELS 3 Zrotation Yrotation Xrotation
										End Site
										{
											OFFSET 0.000000 0.000000 0.000000
										}
									}
								}
							}
						}
					}
					JOINT RightShoulder_virtual
					{
						OFFSET 0.000000 0.000000 0.000000
						CHANNELS 3 Zrotation Yrotation Xrotation
						JOINT RightShoulder
						{
							OFFSET -6.197824 13.665230 -4.064723
							CHANNELS 3 Zrotation Yrotation Xrotation
							JOINT RightArm
							{
								OFFSET -7.778132 -0.187073 -1.709282
								CHANNELS 3 Zrotation Yrotation Xrotation
								JOINT RightForeArm
								{
									OFFSET -21.954697 0.000000 -2.041093
									CHANNELS 3 Zrotation Yrotation Xrotation
									JOINT RightHand
									{
										OFFSET -22.992908 0.000000 -0.870901
										CHANNELS 3 Zrotation Yrotation Xrotation
										End Site
										{
											OFFSET 0.000000 0.000000 0.000000
										}
									}
								}
							}
						}
					}
				}
			}
		}
	}
}
MOTION
Frames: 11
Frame Time: 0.033333
19.747087 82.023209 125.000946 179.722262 12.474182 179.765006 -4.454274 -2.055044 8.319860 6.061126 -2.976360 -23.887791 8.289571 4.304422 27.266081 0.362257 -8.907347 -5.029554 0.000000 0.000000 0.000000 0.169868 -2.383789 6.031141 1.618876 3.310205 -18.445387 -0.728768 2.891724 25.423504 7.099575 11.369928 -8.741429 0.000000 0.000000 0.000000 0.786906 1.201976 -3.310804 1.889564 -2.689864 -6.474462 -1.721704 -0.823479 8.398054 0.016900 0.163302 -0.002426 -2.152291 0.729779 9.041428 -3.704474 -1.224541 -11.149228 0.000000 0.000000 0.000000 -0.326599 1.372566 6.462312 -7.185367 -3.506158 2.930782 -65.320596 1.637537 15.536578 5.050468 -36.318650 11.910658 0.000000 0.000000 0.000000 -5.119163 2.971953 5.729522 29.757266 0.312995 5.461551 53.918763 0.419783 24.476601 -8.495892 32.036483 -6.297094 0.000000 0.000000 0.000000 
19.721687 82.023361 125.013634 179.579074 13.033959 179.718355 -4.335241 -2.201587 8.523231 6.281519 -3.594661 -23.801049 8.405152 3.873027 27.313115 0.395033 -8.970168 -5.854190 0.000000 0.000000 0.000000 0.276006 -2.629174 6.003879 1.847271 2.649708 -18.572326 -0.655363 2.356917 25.289774 7.097615 11.378753 -8.867999 0.000000 0.000000 0.000000 0.644059 1.289265 -3.270024 1.899261 -2.566861 -6.439466 -1.601783 -0.752655 8.416736 0.011966 0.250348 -0.035645 -2.213485 0.694459 8.997301 -3.742911 -1.217442 -11.198608 0.000000 0.000000 0.000000 -0.350804 1.478713 6.375557 -7.242340 -3.378246 2.982626 -65.308643 1.900464 15.503367 5.143276 -36.038086 11.841084 0.000000 0.000000 0.000000 -5.110999 3.095057 5.780267 29.674822 0.360178 5.468623 53.937256 0.403081 24.448297 -8.445890 31.939686 -6.195512 0.000000 0.000000 0.000000 
19.686947 82.014160 124.998177 179.595467 13.143095 179.734160 -4.328864 -2.189443 8.580225 6.237383 -3.578682 -23.898007 8.444142 3.866717 27.410953 0.440340 -8.929692 -5.899923 0.000000 0.000000 0.000000 0.257084 -2.605514 6.031373 1.849533 2.675548 -18.673759 -0.652376 2.402795 25.374347 7.154694 11.395527 -8.831748 0.000000 0.000000 0.000000 0.734658 1.277831 -3.228710 1.922819 -2.490330 -6.422536 -1.734940 -0.728511 8.397051 0.035200 0.269974 -0.041954 -2.126012 0.575378 8.975648 -3.727336 -1.131381 -11.220244 0.000000 0.000000 0.000000 -0.277465 1.452119 6.328655 -7.252959 -3.354948 3.011646 -65.347227 2.180130 15.469796 5.257643 -35.726145 11.749221 0.000000 0.000000 0.000000 -5.046638 3.149253 5.742447 29.636987 0.319432 5.506164 54.082363 0.203263 24.421114 -8.511462 31.935912 -6.213803 0.000000 0.000000 0.000000 
19.644844 82.003258 124.954262 179.591587 13.153756 179.704722 -4.340080 -2.243593 8.634041 6.175311 -3.573806 -23.952215 8.486609 3.839870 27.544532 0.482625 -8.889711 -5.968715 0.000000 0.000000 0.000000 0.218611 -2.676276 6.056762 1.848793 2.689256 -18.772090 -0.653865 2.439182 25.515720 7.228327 11.402799 -8.774152 0.000000 0.000000 0.000000 0.736192 1.211645 -3.177591 1.983148 -2.391120 -6.386279 -1.748582 -0.721529 8.411258 0.090474 0.255275 -0.004565 -2.198197 0.632960 8.907913 -3.818039 -1.045086 -11.187595 0.000000 0.000000 0.000000 -0.332127 1.428029 6.312054 -7.253329 -3.347462 3.057274 -65.283208 2.413864 15.494650 5.290168 -35.521300 11.802945 0.000000 0.000000 0.000000 -5.119478 3.030281 5.763630 29.456973 0.245443 5.464064 54.297675 0.054928 24.322427 -8.432589 31.900071 -6.152700 0.000000 0.000000 0.000000 
19.599783 81.992256 124.887383 179.576615 13.281560 179.700242 -4.354236 -2.274950 8.702032 6.089243 -3.514266 -24.029090 8.536844 3.821243 27.702405 0.530345 -8.828013 -6.032473 0.000000 0.000000 0.000000 0.177217 -2.690943 6.048025 1.834280 2.727588 -18.852382 -0.652796 2.505697 25.675581 7.313616 11.425025 -8.786968 0.000000 0.000000 0.000000 0.694857 1.198327 -3.140528 2.109324 -2.307618 -6.358435 -1.729373 -0.763735 8.383417 -0.009687 0.246450 -0.065753 -2.215674 0.635585 8.943553 -3.988473 -1.108464 -11.136522 0.000000 0.000000 0.000000 -0.411537 1.453062 6.466043 -7.246511 -3.459809 3.086363 -65.092905 2.506880 15.709493 5.371042 -35.412670 11.756373 0.000000 0.000000 0.000000 -5.102897 3.035225 5.713395 29.297810 0.309593 5.636562 54.641752 -0.259449 24.276430 -8.705051 31.704024 -6.280376 0.000000 0.000000 0.000000 
19.540928 81.985992 124.810104 179.584429 13.368320 179.734106 -4.365906 -2.323226 8.708522 6.005719 -3.455769 -24.092980 8.585614 3.787600 27.895732 0.569471 -8.754275 -6.106005 0.000000 0.000000 0.000000 0.143363 -2.719902 6.016282 1.819501 2.737181 -18.924451 -0.649553 2.554229 25.821267 7.412169 11.453350 -8.743227 0.000000 0.000000 0.000000 0.698688 1.145939 -3.170978 2.183171 -2.192211 -6.314010 -1.805058 -0.764023 8.382745 0.063597 0.282003 -0.038209 -2.269925 0.568534 8.918090 -4.113614 -1.057030 -11.036752 0.000000 0.000000 0.000000 -0.432859 1.349069 6.446813 -7.190580 -3.609774 3.176769 -65.015915 2.426204 15.698152 5.175315 -35.523039 12.064286 0.000000 0.000000 0.000000 -5.079662 2.905647 5.725371 29.064046 0.247497 5.666357 54.952403 -0.414171 24.187804 -8.717275 31.555949 -6.271386 0.000000 0.000000 0.000000 
19.482573 81.983078 124.724388 179.587940 13.473350 179.774909 -4.375641 -2.353948 8.666125 5.905450 -3.432512 -24.123204 8.633228 3.768877 28.088782 0.594248 -8.668788 -6.166729 0.000000 0.000000 0.000000 0.113281 -2.739346 5.988671 1.784565 2.727701 -18.984337 -0.649371 2.597017 25.958011 7.505472 11.484057 -8.694679 0.000000 0.000000 0.000000 0.687658 1.047949 -3.189207 2.307648 -2.141382 -6.276657 -1.819342 -0.867505 8.385188 0.057631 0.261812 -0.048116 -2.376268 0.490774 8.904031 -4.295532 -1.002621 -10.895352 0.000000 0.000000 0.000000 -0.503035 1.328891 6.376430 -7.078843 -3.646250 3.326679 -65.034234 2.181992 15.917481 5.151671 -35.713905 12.176947 0.000000 0.000000 0.000000 -5.227315 2.856974 5.739213 28.832599 0.531899 5.753164 55.370438 -0.617273 24.015678 -8.675266 31.462426 -6.143276 0.000000 0.000000 0.000000 
19.432205 81.981804 124.641251 179.590672 13.536812 179.795659 -4.386900 -2.366105 8.658766 5.802986 -3.365345 -24.159257 8.676091 3.702160 28.248448 0.584272 -8.589330 -6.181082 0.000000 0.000000 0.000000 0.098237 -2.796628 6.002364 1.738207 2.721986 -19.030796 -0.644399 2.609289 26.083891 7.593243 11.517015 -8.630834 0.000000 0.000000 0.000000 0.680894 0.952273 -3.163131 2.416303 -2.042776 -6.298647 -1.831393 -0.942696 8.442606 0.050031 0.237117 -0.036696 -2.391876 0.483619 8.825037 -4.501410 -0.640754 -10.660774 0.000000 0.000000 0.000000 -0.581502 1.268499 6.355042 -7.075721 -3.684770 3.373648 -64.801652 1.994519 16.101244 5.037635 -36.119120 12.424464 0.000000 0.000000 0.000000 -5.267939 2.862582 5.684831 28.576149 0.535299 5.736132 55.751989 -0.731740 23.939436 -8.496725 31.146260 -5.989943 0.000000 0.000000 0.000000 
19.382748 81.988922 124.569489 179.597611 13.729632 179.829387 -4.384168 -2.316322 8.668873 5.716602 -3.329129 -24.179710 8.719186 3.696078 28.321688 0.574609 -8.481401 -6.148741 0.000000 0.000000 0.000000 0.101434 -2.740546 6.028338 1.679742 2.750089 -19.115078 -0.638459 2.642759 26.179053 7.669251 11.561926 -8.549767 0.000000 0.000000 0.000000 0.706177 1.010367 -3.146628 2.534120 -1.862289 -6.307473 -1.906295 -0.988916 8.406834 0.005668 0.260783 -0.031798 -2.349672 0.445839 8.881514 -4.702885 -0.822774 -10.248793 0.000000 0.000000 0.000000 -0.565392 1.160680 6.389911 -7.031673 -3.766273 3.538579 -64.607176 1.603492 16.035889 4.855783 -36.798908 12.713023 0.000000 0.000000 0.000000 -5.266314 2.775600 5.696664 28.463710 0.537166 5.787351 55.953641 -0.872058 23.746807 -8.372725 30.797907 -5.889560 0.000000 0.000000 0.000000 
19.344376 81.997932 124.494873 179.605548 13.896051 179.889301 -4.379452 -2.292774 8.645841 5.631568 -3.250300 -24.204035 8.760528 3.666588 28.371358 0.546124 -8.375406 -6.120258 0.000000 0.000000 0.000000 0.115675 -2.700544 6.061825 1.625538 2.763948 -19.235624 -0.634422 2.660064 26.292210 7.723561 11.603120 -8.446617 0.000000 0.000000 0.000000 0.772801 0.990020 -3.158912 2.612487 -1.686343 -6.402871 -1.983444 -1.057774 8.443507 0.055131 0.252443 -0.022966 -2.449998 0.260680 8.891723 -5.038424 -0.615381 -9.760689 0.000000 0.000000 0.000000 -0.647303 1.101991 6.405484 -6.941730 -3.670032 3.620994 -64.358858 1.349003 16.018009 4.612511 -37.686716 13.067496 0.000000 0.000000 0.000000 -5.303113 2.639555 5.739576 28.371175 0.651956 5.861000 56.063770 -0.915320 23.363156 -8.135399 30.441067 -5.729106 0.000000 0.000000 0.000000 
19.307587 82.004318 124.407852 179.610589 14.107462 179.937481 -4.373270 -2.249788 8.631266 5.524378 -3.085002 -24.192009 8.802793 3.627220 28.420777 0.507990 -8.276753 -6.087664 0.000000 0.000000 0.000000 0.131860 -2.679487 6.074813 1.572589 2.811497 -19.352057 -0.627328 2.704989 26.486203 7.770707 11.654675 -8.344011 0.000000 0.000000 0.000000 0.859036 0.956792 -3.170012 2.658746 -1.565085 -6.545009 -2.042504 -1.213963 8.491392 0.049326 0.202813 -0.008347 -2.472432 0.186081 8.888634 -5.391616 -0.440031 -9.118845 0.000000 0.000000 0.000000 -0.702095 1.034505 6.326572 -6.898377 -3.342543 3.726544 -64.088526 1.263044 15.995613 4.342726 -38.934684 13.409432 0.000000 0.000000 0.000000 -5.320806 2.586082 5.758416 28.263208 0.929435 5.940091 56.109669 -0.851443 22.803457 -7.868320 30.089128 -5.736514 0.000000 0.000000 0.000000 
